REM DIRINDEX 1\4,1\2\5,1\2\6,1\2\7,1\3\8,1\3\9,1\3\10,1\3\11
REM DIRNAME folder01,folder02,folder03,folder04,folder05,folder06,folder07,folder08,folder09,folder10,folder11
TITLE ""
FILE "t_j_29.mp3" MP3
  TRACK 01 AUDIO
    TITLE "8:cjc108_2379"
    INDEX 01 00:00:00
  TRACK 02 AUDIO
    TITLE "0:"
    INDEX 01 00:02:45
  TRACK 03 AUDIO
    TITLE "9:cjc108_2380"
    INDEX 01 00:03:53
  TRACK 04 AUDIO
    TITLE "0:"
    INDEX 01 00:04:72
  TRACK 05 AUDIO
    TITLE "10:cjc108_2381"
    INDEX 01 00:05:01
  TRACK 06 AUDIO
    TITLE "0:"
    INDEX 01 00:07:21
  TRACK 07 AUDIO
    TITLE "9:cjc108_2382"
    INDEX 01 00:07:72
  TRACK 08 AUDIO
    TITLE "0:"
    INDEX 01 00:09:02
  TRACK 09 AUDIO
    TITLE "10:cjc108_2383"
    INDEX 01 00:09:12
  TRACK 10 AUDIO
    TITLE "0:"
    INDEX 01 00:10:16
  TRACK 11 AUDIO
    TITLE "11:cjc108_2384"
    INDEX 01 00:10:66
  TRACK 12 AUDIO
    TITLE "0:"
    INDEX 01 00:15:13
  TRACK 13 AUDIO
    TITLE "9:cjc108_2385"
    INDEX 01 00:16:63
  TRACK 14 AUDIO
    TITLE "0:"
    INDEX 01 00:18:11
  TRACK 15 AUDIO
    TITLE "10:cjc108_2386"
    INDEX 01 00:18:15
  TRACK 16 AUDIO
    TITLE "0:"
    INDEX 01 00:19:36
  TRACK 17 AUDIO
    TITLE "9:cjc108_2387"
    INDEX 01 00:20:12
  TRACK 18 AUDIO
    TITLE "0:"
    INDEX 01 00:21:09
  TRACK 19 AUDIO
    TITLE "10:cjc108_2388"
    INDEX 01 00:21:11
  TRACK 20 AUDIO
    TITLE "0:"
    INDEX 01 00:22:25
  TRACK 21 AUDIO
    TITLE "9:cjc108_2389"
    INDEX 01 00:22:74
  TRACK 22 AUDIO
    TITLE "0:"
    INDEX 01 00:24:24
  TRACK 23 AUDIO
    TITLE "10:cjc108_2390"
    INDEX 01 00:24:31
  TRACK 24 AUDIO
    TITLE "0:"
    INDEX 01 00:27:18
  TRACK 25 AUDIO
    TITLE "9:cjc108_2391"
    INDEX 01 00:27:73
  TRACK 26 AUDIO
    TITLE "0:"
    INDEX 01 00:29:13
  TRACK 27 AUDIO
    TITLE "10:cjc108_2392"
    INDEX 01 00:29:23
  TRACK 28 AUDIO
    TITLE "0:"
    INDEX 01 00:30:40
  TRACK 29 AUDIO
    TITLE "11:cjc108_2393"
    INDEX 01 00:31:14
  TRACK 30 AUDIO
    TITLE "0:"
    INDEX 01 00:40:46
  TRACK 31 AUDIO
    TITLE "9:cjc108_2394"
    INDEX 01 00:42:23
  TRACK 32 AUDIO
    TITLE "0:"
    INDEX 01 00:43:33
  TRACK 33 AUDIO
    TITLE "10:cjc108_2395"
    INDEX 01 00:43:37
  TRACK 34 AUDIO
    TITLE "0:"
    INDEX 01 00:44:48
  TRACK 35 AUDIO
    TITLE "9:cjc108_2396"
    INDEX 01 00:45:26
  TRACK 36 AUDIO
    TITLE "0:"
    INDEX 01 00:46:25
  TRACK 37 AUDIO
    TITLE "10:cjc108_2397"
    INDEX 01 00:46:31
  TRACK 38 AUDIO
    TITLE "0:"
    INDEX 01 00:48:67
  TRACK 39 AUDIO
    TITLE "9:cjc108_2398"
    INDEX 01 00:49:41
  TRACK 40 AUDIO
    TITLE "0:"
    INDEX 01 00:50:58
  TRACK 41 AUDIO
    TITLE "10:cjc108_2399"
    INDEX 01 00:50:66
  TRACK 42 AUDIO
    TITLE "0:"
    INDEX 01 00:52:49
  TRACK 43 AUDIO
    TITLE "9:cjc108_2400"
    INDEX 01 00:53:25
  TRACK 44 AUDIO
    TITLE "0:"
    INDEX 01 00:54:36
  TRACK 45 AUDIO
    TITLE "10:cjc108_2401"
    INDEX 01 00:54:40
  TRACK 46 AUDIO
    TITLE "0:"
    INDEX 01 00:56:12
  TRACK 47 AUDIO
    TITLE "9:cjc108_2402"
    INDEX 01 00:56:61
  TRACK 48 AUDIO
    TITLE "0:"
    INDEX 01 00:58:07
  TRACK 49 AUDIO
    TITLE "10:cjc108_2403"
    INDEX 01 00:58:15
  TRACK 50 AUDIO
    TITLE "0:"
    INDEX 01 00:59:12
  TRACK 51 AUDIO
    TITLE "11:cjc108_2404"
    INDEX 01 00:59:65
  TRACK 52 AUDIO
    TITLE "0:"
    INDEX 01 01:07:14
  TRACK 53 AUDIO
    TITLE "9:cjc108_2405"
    INDEX 01 01:08:68
  TRACK 54 AUDIO
    TITLE "0:"
    INDEX 01 01:10:28
  TRACK 55 AUDIO
    TITLE "10:cjc108_2406"
    INDEX 01 01:10:47
  TRACK 56 AUDIO
    TITLE "0:"
    INDEX 01 01:12:64
  TRACK 57 AUDIO
    TITLE "11:cjc108_2407"
    INDEX 01 01:13:36
  TRACK 58 AUDIO
    TITLE "0:"
    INDEX 01 01:19:15
  TRACK 59 AUDIO
    TITLE "9:cjc108_2408"
    INDEX 01 01:20:67
  TRACK 60 AUDIO
    TITLE "0:"
    INDEX 01 01:22:03
  TRACK 61 AUDIO
    TITLE "10:cjc108_2409"
    INDEX 01 01:22:09
  TRACK 62 AUDIO
    TITLE "0:"
    INDEX 01 01:23:24
  TRACK 63 AUDIO
    TITLE "9:cjc108_2410"
    INDEX 01 01:24:00
  TRACK 64 AUDIO
    TITLE "0:"
    INDEX 01 01:25:13
  TRACK 65 AUDIO
    TITLE "10:cjc108_2411"
    INDEX 01 01:25:21
  TRACK 66 AUDIO
    TITLE "0:"
    INDEX 01 01:26:38
  TRACK 67 AUDIO
    TITLE "11:cjc108_2412"
    INDEX 01 01:27:14
  TRACK 68 AUDIO
    TITLE "0:"
    INDEX 01 01:32:21
